Coordinates
version=1
nRows=16
nColumns=36
inDegrees=yes

Units are S.I. units (second, meters, Newtons, ...)
If the header above contains a line with 'inDegrees', this indicates whether rotational values are in degrees (yes) or radians (no).

endheader
time	pelvis_tilt	pelvis_list	pelvis_rotation	pelvis_tx	pelvis_ty	pelvis_tz	hip_flexion_r	hip_adduction_r	hip_rotation_r	knee_angle_r	knee_angle_r_beta	ankle_angle_r	subtalar_angle_r	mtp_angle_r	hip_flexion_l	hip_adduction_l	hip_rotation_l	knee_angle_l	knee_angle_l_beta	ankle_angle_l	subtalar_angle_l	mtp_angle_l	lumbar_extension	lumbar_bending	lumbar_rotation	arm_flex_r	arm_add_r	arm_rot_r	elbow_flex_r	pro_sup_r	arm_flex_l	arm_add_l	arm_rot_l	elbow_flex_l	pro_sup_l
     23.50000000	    -16.70452064	      2.48552361	     -1.64429222	      0.57138420	      0.86083648	     -0.27844489	     28.79250190	     -6.52557128	      4.83552409	     17.33605572	      0.30257125	      3.45366353	    -26.91150691	     -7.49999987	     27.77210248	     -6.05960020	      5.55652055	     16.26361827	      0.28385369	      7.53374991	    -12.50429109	     -7.49999987	     -4.67150534	     -2.08330957	      0.16222068	     52.11771910	     12.61531014	     64.71463021	    126.85540834	     98.96942621	     66.69862595	     15.23687716	     63.38465849	    122.00288628	     84.55217561
     23.51666670	    -17.51137979	      2.49884200	     -1.36908546	      0.57057668	      0.86486207	     -0.27898172	     30.68399870	     -6.63109988	      4.69204505	     18.88281331	      0.32956726	      3.59649646	    -26.84486685	     -7.49999987	     29.86412984	     -6.01841135	      5.47962308	     18.05204098	      0.31506755	      7.74108920	    -12.44627851	     -7.49999987	     -5.38651315	     -2.01016491	      0.20178706	     53.03150628	     12.59520030	     65.54369586	    127.10545280	     99.29992868	     67.14217590	     15.36943687	     63.62661975	    122.08201533	     84.70012825
     23.53333330	    -18.52211251	      2.47413950	     -1.16805492	      0.57211364	      0.86311061	     -0.27894815	     32.75533149	     -6.67824438	      4.51441638	     20.59391840	      0.35943168	      4.05559156	    -26.46739503	     -7.49999987	     32.21842091	     -6.13269953	      4.90410948	     20.15443562	      0.35176126	      8.47506990	    -11.46778603	     -7.49999987	     -5.70070930	     -1.93221385	      0.48156570	     53.82515278	     12.05059025	     66.55072070	    127.45175443	    100.21934312	     66.98985866	     15.58026274	     64.49702128	    122.36359004	     85.20379155
     23.55000000	    -18.94490085	      2.54434189	     -1.12119920	      0.56517317	      0.85712338	     -0.27969144	     34.78231079	     -6.81621309	      4.37163484	     23.14456388	      0.40394884	      4.66739527	    -26.25854272	     -7.49999987	     34.13954051	     -6.14876031	      4.44085711	     22.55600791	      0.39367660	      9.23597974	    -11.29764784	     -7.49999987	     -6.90872486	     -1.92567597	      0.77367803	     55.59514224	     11.32757120	     66.87197603	    127.83973853	    100.00824562	     67.82377919	     15.77508056	     64.91247376	    122.63529922	     85.20394902
     23.56666670	    -19.61907978	      2.73909836	     -1.00001694	      0.55860046	      0.85178835	     -0.28092831	     37.36028746	     -7.25211068	      3.92178092	     26.05285903	      0.45470817	      5.39232786	    -25.67956227	     -7.49999987	     36.53298880	     -6.07507787	      3.87488435	     25.23560745	      0.44044444	     10.31963072	    -10.57938843	     -7.49999987	     -7.91303609	     -2.06252950	      0.81180559	     56.87106826	     10.66055214	     67.07996932	    128.97769303	     97.09255807	     68.83829390	     15.95976402	     65.40208197	    123.38335806	     83.31903216
     23.58333330	    -20.70285032	      2.92594920	     -1.06522200	      0.55125628	      0.84007945	     -0.28155543	     40.82680923	     -7.48416651	      4.01048425	     29.45036580	      0.51400585	      6.31213923	    -25.73019485	     -7.49999987	     39.77180221	     -6.33056658	      2.69751330	     28.48381690	      0.49713639	     12.24903758	     -8.77848024	     -7.49999987	     -8.41244084	     -2.53936600	      1.28556506	     58.78833434	     10.10595798	     66.62068403	    129.33427348	    101.97929327	     71.02254023	     16.64323356	     66.37791716	    122.45190663	     87.13785207
     23.60000000	    -22.01853175	      3.15412601	     -0.91826394	      0.53319391	      0.82997444	     -0.28083675	     44.98819573	     -7.94126993	      3.82338188	     33.09287508	      0.57757963	      7.41942160	    -25.23359892	     -7.49999987	     43.77284290	     -6.42326651	      1.95773980	     31.95605612	      0.55773840	     13.57475905	     -7.99594495	     -7.49999987	     -9.26916858	     -2.94249791	      1.16266437	     61.75850285	      9.67802633	     65.55157536	    128.74074826	    101.76243526	     74.30419922	     16.85360998	     66.03111778	    122.01990151	     87.24572256
     23.61666670	    -23.06187868	      3.14973160	     -0.79338381	      0.52603364	      0.82108341	     -0.28204006	     48.73817801	     -8.25972520	      3.59847935	     36.45745555	      0.63630264	      8.67716703	    -24.51835289	     -7.49999987	     47.40869726	     -6.64073888	      1.77854299	     35.19096893	      0.61419827	     14.90451502	     -7.07234612	     -7.49999987	    -10.15035974	     -3.01991817	      0.74845275	     64.16480338	      9.58679065	     65.77502211	    129.00755594	     99.25875813	     77.31051518	     16.90126132	     66.15477703	    121.66121473	     85.64624837
     23.63333330	    -24.10923877	      3.14670078	     -0.43902731	      0.52435888	      0.81876659	     -0.28487984	     51.90930276	     -8.76518090	      3.20754880	     39.20825872	      0.68431321	      9.56586204	    -23.81827854	     -7.49999987	     50.75531958	     -6.72943406	      1.48861790	     38.10645089	      0.66508303	     15.92991855	     -5.84724585	     -7.49999987	    -11.02397808	     -3.03657862	      0.02776584	     65.53360569	      9.20019723	     65.57962555	    129.01065476	     99.53286766	     78.60644781	     16.88300027	     66.67950791	    121.71676724	     85.84351500
     23.65000000	    -24.62402502	      3.08339766	     -0.09189913	      0.52516019	      0.81590903	     -0.28489807	     53.84189164	     -9.19507685	      2.85935962	     41.23702688	      0.71972189	     10.19056807	    -23.17668043	     -7.49999987	     52.90809063	     -6.72033649	      1.54533066	     40.29119952	      0.70321409	     16.35666724	     -5.11990381	     -7.49999987	    -12.22973570	     -2.94985709	     -0.44545900	     66.08287140	      8.93519513	     66.24406056	    129.19353577	     99.73260059	     78.85509019	     17.07455583	     67.68323083	    122.11747674	     85.96809537
     23.66666670	    -24.92923730	      3.00401300	      0.05414114	      0.51927189	      0.81082660	     -0.28602387	     55.40360440	     -9.49938503	      2.60618974	     42.91132350	      0.74894388	     10.96135672	    -22.24616557	     -7.49999987	     54.61938583	     -6.84826773	      1.33622654	     42.24603680	      0.73733244	     16.91405886	     -4.31189554	     -7.49999987	    -13.64064775	     -2.79580286	     -0.90034204	     66.54954432	      8.79811195	     66.71129934	    128.94332674	     98.74231046	     78.82315360	     16.85095424	     68.81934618	    122.52683077	     85.44294408
     23.68333330	    -24.98730751	      2.94901300	      0.17040817	      0.51980503	      0.80568338	     -0.28618616	     56.49139913	     -9.72482859	      2.35812613	     44.66351150	      0.77952533	     12.05702422	    -21.43587489	     -7.49999987	     55.88897165	     -7.04378441	      1.11766033	     44.18479361	      0.77117013	     17.63987754	     -3.55402236	     -7.49999987	    -14.99905000	     -2.79263373	     -1.42811636	     66.25857946	      8.48563593	     68.43252905	    129.51450922	     96.57595646	     78.61216887	     16.76588827	     70.15523314	    122.99090227	     84.26258989
     23.70000000	    -24.91832587	      2.81896018	      0.01706803	      0.52150576	      0.79323708	     -0.28726749	     57.61721267	     -9.72184052	      2.26092194	     46.85080555	      0.81770081	     13.75618970	    -20.46624678	     -7.49999987	     57.28827896	     -7.62183997	      0.66316983	     46.93525673	      0.81917477	     19.07696449	     -2.13940667	     -7.49999987	    -16.28641044	     -2.52268206	     -1.49951526	     65.81525213	      8.27496870	     69.70004077	    129.80310650	     96.04068829	     77.97931315	     16.82192098	     71.17502639	    123.40402872	     83.71098408
     23.71666670	    -24.72097298	      2.70734106	     -0.10201472	      0.52124456	      0.78481254	     -0.28719756	     58.61115140	     -9.72464182	      2.26947157	     49.21019958	      0.85888001	     14.84965627	    -20.37648005	     -7.49999987	     58.57923563	     -8.11055889	      0.47442810	     49.62606481	      0.86613823	     20.12642608	     -1.99271702	     -7.49999987	    -17.59142459	     -2.41472971	     -1.65344725	     65.54146191	      8.25903429	     70.19607603	    130.05335586	     93.82521291	     77.84161708	     17.00406459	     71.54425345	    123.87357861	     82.18350156
     23.73333330	    -24.77010819	      2.54126035	     -0.57867440	      0.51776416	      0.77662194	     -0.28470090	     60.27444523	     -9.36625727	      2.32710122	     52.15723084	      0.91031541	     17.23337074	    -18.99898583	     -7.49999987	     60.21387717	     -9.12696657	      0.19849215	     52.61899058	      0.91837463	     21.87271693	     -0.38525139	     -7.49999987	    -18.37904681	     -2.24763554	     -1.23204541	     65.80116598	      8.53537763	     71.76472241	    129.60554782	     94.70415309	     77.72134733	     16.99075600	     72.16267784	    124.09094372	     82.74777551
     23.75000000	    -24.93321641	      2.69889633	     -1.10955153	      0.51305188	      0.77102552	     -0.28229928	     62.03722342	     -9.12135771	      2.58149345	     54.69970215	      0.95468990	     19.09420278	    -17.65442669	     -7.49999987	     61.60388327	     -9.89569862	     -0.11867652	     54.91931128	      0.95852280	     22.99580321	      0.21618644	     -7.49999987	    -19.43918945	     -2.43881232	     -0.85590734	     66.23672036	      8.65464016	     71.99892090	    129.12461932	     95.20396773	     77.87172973	     16.73818531	     72.07332846	    124.79599323	     83.24278159
